<svg xmlns="http://www.w3.org/2000/svg" viewBox="0 0 100 100" width="100" height="100">
  <title>Gorgias · τέχνη</title>
  <!-- Medallón + τ (tono tinta dorada) -->
  <circle cx="50" cy="50" r="38" fill="none" stroke="#8C6D34" stroke-width="1.8"/>
  <circle cx="50" cy="50" r="33.5" fill="none" stroke="#B08D4C" stroke-width="0.9" opacity="0.75"/>
  <g fill="none" stroke="#8C6D34" stroke-width="4.8" stroke-linecap="round" stroke-linejoin="round">
    <path d="M34,38 H66"/>
    <path d="M50,38 V60 Q50,66 56,65"/>
  </g>
  <!-- Laurel (dorado) -->
  <g fill="#B08D4C" stroke="none">
    <path d="M42,78 Q28,73 21.5,48" fill="none" stroke="#B08D4C" stroke-width="1.3" stroke-linecap="round"/>
    <ellipse cx="40" cy="75" rx="3.4" ry="1.7" transform="rotate(-38 40 75)"/>
    <ellipse cx="33.5" cy="70" rx="3.4" ry="1.7" transform="rotate(-48 33.5 70)"/>
    <ellipse cx="28" cy="63.5" rx="3.4" ry="1.7" transform="rotate(-58 28 63.5)"/>
    <ellipse cx="24" cy="56" rx="3.4" ry="1.7" transform="rotate(-68 24 56)"/>
    <ellipse cx="21.5" cy="48" rx="3.4" ry="1.7" transform="rotate(-78 21.5 48)"/>
    <path d="M58,78 Q72,73 78.5,48" fill="none" stroke="#B08D4C" stroke-width="1.3" stroke-linecap="round"/>
    <ellipse cx="60" cy="75" rx="3.4" ry="1.7" transform="rotate(38 60 75)"/>
    <ellipse cx="66.5" cy="70" rx="3.4" ry="1.7" transform="rotate(48 66.5 70)"/>
    <ellipse cx="72" cy="63.5" rx="3.4" ry="1.7" transform="rotate(58 72 63.5)"/>
    <ellipse cx="76" cy="56" rx="3.4" ry="1.7" transform="rotate(68 76 56)"/>
    <ellipse cx="78.5" cy="48" rx="3.4" ry="1.7" transform="rotate(78 78.5 48)"/>
  </g>
</svg>
